<svg width="24" height="25" viewBox="0 0 24 25" fill="none" xmlns="http://www.w3.org/2000/svg">
<g id="paid">
<mask id="mask0_596_437" style="mask-type:alpha" maskUnits="userSpaceOnUse" x="0" y="0" width="24" height="25">
<rect id="Bounding box" y="0.5" width="24" height="24" fill="#D9D9D9"/>
</mask>
<g mask="url(#mask0_596_437)">
<path id="paid_2" d="M12 22.5C10.6167 22.5 9.31667 22.2375 8.1 21.7125C6.88333 21.1875 5.825 20.475 4.925 19.575C4.025 18.675 3.3125 17.6167 2.7875 16.4C2.2625 15.1833 2 13.8833 2 12.5C2 11.1167 2.2625 9.81667 2.7875 8.6C3.3125 7.38333 4.025 6.325 4.925 5.425C5.825 4.525 6.88333 3.8125 8.1 3.2875C9.31667 2.7625 10.6167 2.5 12 2.5C13.3833 2.5 14.6833 2.7625 15.9 3.2875C17.1167 3.8125 18.175 4.525 19.075 5.425C19.975 6.325 20.6875 7.38333 21.2125 8.6C21.7375 9.81667 22 11.1167 22 12.5C22 13.8833 21.7375 15.1833 21.2125 16.4C20.6875 17.6167 19.975 18.675 19.075 19.575C18.175 20.475 17.1167 21.1875 15.9 21.7125C14.6833 22.2375 13.3833 22.5 12 22.5ZM12 20.5C14.2333 20.5 16.125 19.725 17.675 18.175C19.225 16.625 20 14.7333 20 12.5C20 10.2667 19.225 8.375 17.675 6.825C16.125 5.275 14.2333 4.5 12 4.5C9.76667 4.5 7.875 5.275 6.325 6.825C4.775 8.375 4 10.2667 4 12.5C4 14.7333 4.775 16.625 6.325 18.175C7.875 19.725 9.76667 20.5 12 20.5ZM11.975 19.5C12.2083 19.5 12.4125 19.4125 12.5875 19.2375C12.7625 19.0625 12.85 18.8583 12.85 18.625V18.25C13.6833 18.1 14.4 17.775 15 17.275C15.6 16.775 15.9 16.0333 15.9 15.05C15.9 14.35 15.7 13.7083 15.3 13.125C14.9 12.5417 14.1 12.0333 12.9 11.6C11.9 11.2667 11.2083 10.975 10.825 10.725C10.4417 10.475 10.25 10.1333 10.25 9.7C10.25 9.26667 10.4042 8.925 10.7125 8.675C11.0208 8.425 11.4667 8.3 12.05 8.3C12.3833 8.3 12.675 8.35833 12.925 8.475C13.175 8.59167 13.3833 8.75 13.55 8.95C13.7167 9.15 13.9042 9.2875 14.1125 9.3625C14.3208 9.4375 14.5167 9.43333 14.7 9.35C14.95 9.25 15.1208 9.07917 15.2125 8.8375C15.3042 8.59583 15.2833 8.375 15.15 8.175C14.8833 7.79167 14.5542 7.46667 14.1625 7.2C13.7708 6.93333 13.35 6.78333 12.9 6.75V6.375C12.9 6.14167 12.8125 5.9375 12.6375 5.7625C12.4625 5.5875 12.2583 5.5 12.025 5.5C11.7917 5.5 11.5875 5.5875 11.4125 5.7625C11.2375 5.9375 11.15 6.14167 11.15 6.375V6.75C10.3167 6.93333 9.66667 7.3 9.2 7.85C8.73333 8.4 8.5 9.01667 8.5 9.7C8.5 10.4833 8.72917 11.1167 9.1875 11.6C9.64583 12.0833 10.3667 12.5 11.35 12.85C12.4 13.2333 13.1292 13.575 13.5375 13.875C13.9458 14.175 14.15 14.5667 14.15 15.05C14.15 15.6 13.9542 16.0042 13.5625 16.2625C13.1708 16.5208 12.7 16.65 12.15 16.65C11.7167 16.65 11.325 16.5458 10.975 16.3375C10.625 16.1292 10.3333 15.8167 10.1 15.4C9.96667 15.1667 9.79167 15.0083 9.575 14.925C9.35833 14.8417 9.14167 14.8417 8.925 14.925C8.69167 15.0083 8.52083 15.1667 8.4125 15.4C8.30417 15.6333 8.3 15.8583 8.4 16.075C8.66667 16.6417 9.025 17.1042 9.475 17.4625C9.925 17.8208 10.4667 18.0667 11.1 18.2V18.625C11.1 18.8583 11.1875 19.0625 11.3625 19.2375C11.5375 19.4125 11.7417 19.5 11.975 19.5Z" fill="#1C1B1F"/>
</g>
</g>
</svg>
