<svg width="25" height="25" viewBox="0 0 25 25" fill="none" xmlns="http://www.w3.org/2000/svg">
<g id="person_selected">
<mask id="mask0_596_384" style="mask-type:alpha" maskUnits="userSpaceOnUse" x="0" y="0" width="25" height="25">
<rect id="Bounding box" x="0.0480652" y="0.649353" width="24" height="24" fill="#D9D9D9"/>
</mask>
<g mask="url(#mask0_596_384)">
<path id="person" d="M12.0481 12.6494C10.9481 12.6494 10.0064 12.2577 9.22307 11.4744C8.43973 10.691 8.04807 9.74935 8.04807 8.64935C8.04807 7.54935 8.43973 6.60769 9.22307 5.82435C10.0064 5.04102 10.9481 4.64935 12.0481 4.64935C13.1481 4.64935 14.0897 5.04102 14.8731 5.82435C15.6564 6.60769 16.0481 7.54935 16.0481 8.64935C16.0481 9.74935 15.6564 10.691 14.8731 11.4744C14.0897 12.2577 13.1481 12.6494 12.0481 12.6494ZM4.04807 20.6494V17.8494C4.04807 17.2827 4.1939 16.7619 4.48557 16.2869C4.77723 15.8119 5.16473 15.4494 5.64807 15.1994C6.6814 14.6827 7.7314 14.2952 8.79807 14.0369C9.86473 13.7785 10.9481 13.6494 12.0481 13.6494C13.1481 13.6494 14.2314 13.7785 15.2981 14.0369C16.3647 14.2952 17.4147 14.6827 18.4481 15.1994C18.9314 15.4494 19.3189 15.8119 19.6106 16.2869C19.9022 16.7619 20.0481 17.2827 20.0481 17.8494V20.6494H4.04807Z" fill="#1C1B1F"/>
</g>
</g>
</svg>
