<svg width="25" height="25" viewBox="0 0 25 25" fill="none" xmlns="http://www.w3.org/2000/svg">
<g id="person_unselected">
<mask id="mask0_596_381" style="mask-type:alpha" maskUnits="userSpaceOnUse" x="0" y="0" width="25" height="25">
<rect id="Bounding box" x="0.0480652" y="0.577209" width="24" height="24" fill="#D9D9D9"/>
</mask>
<g mask="url(#mask0_596_381)">
<path id="person" d="M12.0481 12.5772C10.9481 12.5772 10.0064 12.1855 9.22307 11.4022C8.43973 10.6189 8.04807 9.67721 8.04807 8.57721C8.04807 7.47721 8.43973 6.53554 9.22307 5.75221C10.0064 4.96888 10.9481 4.57721 12.0481 4.57721C13.1481 4.57721 14.0897 4.96888 14.8731 5.75221C15.6564 6.53554 16.0481 7.47721 16.0481 8.57721C16.0481 9.67721 15.6564 10.6189 14.8731 11.4022C14.0897 12.1855 13.1481 12.5772 12.0481 12.5772ZM4.04807 20.5772V17.7772C4.04807 17.2105 4.1939 16.6897 4.48557 16.2147C4.77723 15.7397 5.16473 15.3772 5.64807 15.1272C6.6814 14.6105 7.7314 14.223 8.79807 13.9647C9.86473 13.7064 10.9481 13.5772 12.0481 13.5772C13.1481 13.5772 14.2314 13.7064 15.2981 13.9647C16.3647 14.223 17.4147 14.6105 18.4481 15.1272C18.9314 15.3772 19.3189 15.7397 19.6106 16.2147C19.9022 16.6897 20.0481 17.2105 20.0481 17.7772V20.5772H4.04807ZM6.04807 18.5772H18.0481V17.7772C18.0481 17.5939 18.0022 17.4272 17.9106 17.2772C17.8189 17.1272 17.6981 17.0105 17.5481 16.9272C16.6481 16.4772 15.7397 16.1397 14.8231 15.9147C13.9064 15.6897 12.9814 15.5772 12.0481 15.5772C11.1147 15.5772 10.1897 15.6897 9.27307 15.9147C8.3564 16.1397 7.44807 16.4772 6.54807 16.9272C6.39807 17.0105 6.27723 17.1272 6.18557 17.2772C6.0939 17.4272 6.04807 17.5939 6.04807 17.7772V18.5772ZM12.0481 10.5772C12.5981 10.5772 13.0689 10.3814 13.4606 9.98971C13.8522 9.59804 14.0481 9.12721 14.0481 8.57721C14.0481 8.02721 13.8522 7.55638 13.4606 7.16471C13.0689 6.77304 12.5981 6.57721 12.0481 6.57721C11.4981 6.57721 11.0272 6.77304 10.6356 7.16471C10.2439 7.55638 10.0481 8.02721 10.0481 8.57721C10.0481 9.12721 10.2439 9.59804 10.6356 9.98971C11.0272 10.3814 11.4981 10.5772 12.0481 10.5772Z" fill="#969696"/>
</g>
</g>
</svg>
