<svg width="79" height="79" viewBox="0 0 79 79" fill="none" xmlns="http://www.w3.org/2000/svg">
<g id="add_a_photo">
<mask id="mask0_596_416" style="mask-type:alpha" maskUnits="userSpaceOnUse" x="0" y="0" width="79" height="79">
<rect id="Bounding box" x="0.833389" y="0.953613" width="77.9333" height="77.9333" fill="#D9D9D9"/>
</mask>
<g mask="url(#mask0_596_416)">
<path id="add_a_photo_2" d="M10.5751 69.1453C8.78908 69.1453 7.26018 68.5094 5.98836 67.2376C4.71653 65.9657 4.08061 64.4368 4.08061 62.6509V23.6842C4.08061 21.8982 4.71653 20.3693 5.98836 19.0975C7.26018 17.8257 8.78908 17.1898 10.5751 17.1898H20.8038L26.8112 10.6953H46.2945V17.1898H29.6525L23.7263 23.6842H10.5751V62.6509H62.5306V33.4259H69.0251V62.6509C69.0251 64.4368 68.3891 65.9657 67.1173 67.2376C65.8455 68.5094 64.3166 69.1453 62.5306 69.1453H10.5751ZM62.5306 23.6842V17.1898H56.0362V10.6953H62.5306V4.20087H69.0251V10.6953H75.5195V17.1898H69.0251V23.6842H62.5306ZM36.5528 57.78C40.6119 57.78 44.062 56.3594 46.9034 53.5181C49.7447 50.6767 51.1653 47.2266 51.1653 43.1675C51.1653 39.1085 49.7447 35.6583 46.9034 32.817C44.062 29.9757 40.6119 28.555 36.5528 28.555C32.4938 28.555 29.0436 29.9757 26.2023 32.817C23.361 35.6583 21.9403 39.1085 21.9403 43.1675C21.9403 47.2266 23.361 50.6767 26.2023 53.5181C29.0436 56.3594 32.4938 57.78 36.5528 57.78ZM36.5528 51.2856C34.2798 51.2856 32.3585 50.5008 30.789 48.9314C29.2195 47.3619 28.4348 45.4406 28.4348 43.1675C28.4348 40.8945 29.2195 38.9732 30.789 37.4037C32.3585 35.8342 34.2798 35.0495 36.5528 35.0495C38.8259 35.0495 40.7472 35.8342 42.3167 37.4037C43.8861 38.9732 44.6709 40.8945 44.6709 43.1675C44.6709 45.4406 43.8861 47.3619 42.3167 48.9314C40.7472 50.5008 38.8259 51.2856 36.5528 51.2856Z" fill="#003366" fill-opacity="0.4"/>
</g>
</g>
</svg>
