<svg width="25" height="25" viewBox="0 0 25 25" fill="none" xmlns="http://www.w3.org/2000/svg">
<g id="progress_selected">
<mask id="mask0_596_375" style="mask-type:alpha" maskUnits="userSpaceOnUse" x="0" y="0" width="25" height="25">
<rect id="Bounding box" x="0.0288391" y="0.649353" width="24" height="24" fill="#D9D9D9"/>
</mask>
<g mask="url(#mask0_596_375)">
<path id="bid_landscape" d="M5.02884 21.6494C4.47884 21.6494 4.00801 21.4535 3.61634 21.0619C3.22467 20.6702 3.02884 20.1994 3.02884 19.6494V5.64935C3.02884 5.09935 3.22467 4.62852 3.61634 4.23685C4.00801 3.84519 4.47884 3.64935 5.02884 3.64935H19.0288C19.5788 3.64935 20.0497 3.84519 20.4413 4.23685C20.833 4.62852 21.0288 5.09935 21.0288 5.64935V19.6494C21.0288 20.1994 20.833 20.6702 20.4413 21.0619C20.0497 21.4535 19.5788 21.6494 19.0288 21.6494H5.02884ZM19.0288 7.89935L12.9788 14.6994L9.02884 10.7494L5.02884 14.7494V17.5994L9.02884 13.5994L13.0788 17.6494L19.0288 10.8994V7.89935Z" fill="#1C1B1F"/>
</g>
</g>
</svg>
