<svg width="25" height="25" viewBox="0 0 25 25" fill="none" xmlns="http://www.w3.org/2000/svg">
<g id="progress_unselected">
<mask id="mask0_596_372" style="mask-type:alpha" maskUnits="userSpaceOnUse" x="0" y="0" width="25" height="25">
<rect id="Bounding box" x="0.0288391" y="0.577209" width="24" height="24" fill="#D9D9D9"/>
</mask>
<g mask="url(#mask0_596_372)">
<path id="bid_landscape" d="M5.02884 21.5772C4.47884 21.5772 4.00801 21.3814 3.61634 20.9897C3.22467 20.598 3.02884 20.1272 3.02884 19.5772V5.57721C3.02884 5.02721 3.22467 4.55638 3.61634 4.16471C4.00801 3.77304 4.47884 3.57721 5.02884 3.57721H19.0288C19.5788 3.57721 20.0497 3.77304 20.4413 4.16471C20.833 4.55638 21.0288 5.02721 21.0288 5.57721V19.5772C21.0288 20.1272 20.833 20.598 20.4413 20.9897C20.0497 21.3814 19.5788 21.5772 19.0288 21.5772H5.02884ZM5.02884 17.5272V19.5772H19.0288V10.8272L13.0788 17.5772L9.02884 13.5272L5.02884 17.5272ZM5.02884 14.6772L9.02884 10.6772L12.9788 14.6272L19.0288 7.82721V5.57721H5.02884V14.6772ZM5.02884 10.8272V7.82721V14.6272V10.6772V17.5272V13.5272V17.5772V10.8272ZM5.02884 14.6772V5.57721V14.6272V10.6772V14.6772ZM5.02884 17.5272V13.5272V17.5772V10.8272V19.5772V17.5272Z" fill="#969696"/>
</g>
</g>
</svg>
