<svg width="79" height="79" viewBox="0 0 79 79" fill="none" xmlns="http://www.w3.org/2000/svg">
<g id="laundry">
<mask id="mask0_596_397" style="mask-type:alpha" maskUnits="userSpaceOnUse" x="0" y="0" width="79" height="79">
<rect id="Bounding box" x="0.833328" y="0.933472" width="77.9333" height="77.9333" fill="#D9D9D9"/>
</mask>
<g mask="url(#mask0_596_397)">
<path id="laundry_2" d="M14.2281 39.9L4.48645 23.0145L25.9181 10.675H30.0583C30.9243 13.2728 31.9525 15.5459 33.1432 17.4942C34.3338 19.4425 36.5528 20.4167 39.8 20.4167C43.0472 20.4167 45.2662 19.4425 46.4568 17.4942C47.6474 15.5459 48.6757 13.2728 49.5417 10.675H53.6819L75.0324 23.0956L65.3719 39.9L59.2833 36.5716V52.1583L54.169 56.6232C54.0066 56.7315 53.7901 56.8668 53.5195 57.0291C53.2489 57.1915 53.0054 57.3268 52.7889 57.435V25.5311L62.9365 31.1325L66.1837 25.4499L53.7631 18.2248C52.4642 20.8767 50.5564 22.9874 48.0398 24.5569C45.5232 26.1264 42.7766 26.9111 39.8 26.9111C36.8234 26.9111 34.0768 26.1264 31.5602 24.5569C29.0436 22.9874 27.1358 20.8767 25.8369 18.2248L13.3351 25.4499L16.6635 31.1325L26.8111 25.5311V44.7709C25.6746 44.8791 24.5651 45.055 23.4827 45.2985C22.4003 45.5421 21.3449 45.8803 20.3167 46.3133V36.5716L14.2281 39.9ZM15.9329 63.8483L11.7115 58.8963L18.7742 52.8889C20.019 51.8065 21.4397 50.9812 23.0362 50.4129C24.6328 49.8446 26.297 49.5605 28.0288 49.5605C29.7607 49.5605 31.4113 49.8446 32.9808 50.4129C34.5503 50.9812 35.9574 51.8065 37.2022 52.8889L46.6192 60.9258C47.2686 61.467 48.0398 61.8864 48.9328 62.1841C49.8258 62.4817 50.7323 62.6306 51.6524 62.6306C52.6265 62.6306 53.533 62.4953 54.3719 62.2247C55.2108 61.9541 55.9549 61.5211 56.6044 60.9258L63.6671 54.8372L67.8885 59.8704L60.8258 65.8778C59.581 66.9602 58.1739 67.772 56.6044 68.3132C55.0349 68.8544 53.3842 69.125 51.6524 69.125C49.9205 69.125 48.2563 68.8544 46.6598 68.3132C45.0632 67.772 43.6425 66.9602 42.3978 65.8778L32.9808 57.8409C32.3314 57.2997 31.5872 56.8803 30.7484 56.5826C29.9095 56.285 29.003 56.1361 28.0288 56.1361C27.1088 56.1361 26.2022 56.285 25.3093 56.5826C24.4163 56.8803 23.6451 57.2997 22.9956 57.8409L15.9329 63.8483Z" fill="#03C7E1" fill-opacity="0.5"/>
</g>
</g>
</svg>
