<svg width="25" height="25" viewBox="0 0 25 25" fill="none" xmlns="http://www.w3.org/2000/svg">
<g id="shopping_bag">
<mask id="mask0_596_443" style="mask-type:alpha" maskUnits="userSpaceOnUse" x="0" y="0" width="25" height="25">
<rect id="Bounding box" x="0.5" y="0.5" width="24" height="24" fill="#D9D9D9"/>
</mask>
<g mask="url(#mask0_596_443)">
<path id="shopping_bag_2" d="M6.5 22.5C5.95 22.5 5.47917 22.3042 5.0875 21.9125C4.69583 21.5208 4.5 21.05 4.5 20.5V8.5C4.5 7.95 4.69583 7.47917 5.0875 7.0875C5.47917 6.69583 5.95 6.5 6.5 6.5H8.5C8.5 5.4 8.89167 4.45833 9.675 3.675C10.4583 2.89167 11.4 2.5 12.5 2.5C13.6 2.5 14.5417 2.89167 15.325 3.675C16.1083 4.45833 16.5 5.4 16.5 6.5H18.5C19.05 6.5 19.5208 6.69583 19.9125 7.0875C20.3042 7.47917 20.5 7.95 20.5 8.5V20.5C20.5 21.05 20.3042 21.5208 19.9125 21.9125C19.5208 22.3042 19.05 22.5 18.5 22.5H6.5ZM6.5 20.5H18.5V8.5H16.5V10.5C16.5 10.7833 16.4042 11.0208 16.2125 11.2125C16.0208 11.4042 15.7833 11.5 15.5 11.5C15.2167 11.5 14.9792 11.4042 14.7875 11.2125C14.5958 11.0208 14.5 10.7833 14.5 10.5V8.5H10.5V10.5C10.5 10.7833 10.4042 11.0208 10.2125 11.2125C10.0208 11.4042 9.78333 11.5 9.5 11.5C9.21667 11.5 8.97917 11.4042 8.7875 11.2125C8.59583 11.0208 8.5 10.7833 8.5 10.5V8.5H6.5V20.5ZM10.5 6.5H14.5C14.5 5.95 14.3042 5.47917 13.9125 5.0875C13.5208 4.69583 13.05 4.5 12.5 4.5C11.95 4.5 11.4792 4.69583 11.0875 5.0875C10.6958 5.47917 10.5 5.95 10.5 6.5Z" fill="#1C1B1F"/>
</g>
</g>
</svg>
